# xmcd CD database file
#
# Track frame offsets:
#	150
#	15980
#	32202
#	49144
#	66822
#
# Disc length: 1048 seconds
#
# Revision: 0
# Processed by: cddbd v1.5.2PL0 Copyright (c) Steve Scherf et al.
# Submitted via: Feurio! 1.68 - http://www.feurio.com
#
DISCID=38041605
DTITLE=Jolie Holliday - Jolie Holliday
DYEAR=1900
DGENRE=Country
TTITLE0=Driving To Hollywood
TTITLE1=What We Gonna Do About It
TTITLE2=I Don't Need Champagne
TTITLE3=I'm Coming Home To You
TTITLE4=Stubborn
EXTD=
EXTT0=
EXTT1=
EXTT2=
EXTT3=
EXTT4=
PLAYORDER=
